<mxfile host="app.diagrams.net" modified="2022-03-19T11:56:35.222Z" agent="5.0 (Windows NT 10.0; Win64; x64) AppleWebKit/537.36 (KHTML, like Gecko) Chrome/99.0.4844.51 Safari/537.36 Edg/99.0.1150.39" etag="31KvDZc2pUKTw038H_ou" version="17.1.3" type="github">
  <diagram id="-DG-geGlwMjXEeJ0QbCG" name="Page-1">
    <mxGraphModel dx="1422" dy="786" grid="1" gridSize="10" guides="1" tooltips="1" connect="1" arrows="1" fold="1" page="1" pageScale="1" pageWidth="850" pageHeight="1100" math="0" shadow="0">
      <root>
        <mxCell id="0" />
        <mxCell id="1" parent="0" />
        <mxCell id="_dHpeF81XEZjoDz7rJlP-1" value="" style="shape=table;startSize=0;container=1;collapsible=0;childLayout=tableLayout;" vertex="1" parent="1">
          <mxGeometry x="40" y="120" width="450" height="160" as="geometry" />
        </mxCell>
        <mxCell id="_dHpeF81XEZjoDz7rJlP-2" style="shape=tableRow;horizontal=0;startSize=0;swimlaneHead=0;swimlaneBody=0;top=0;left=0;bottom=0;right=0;collapsible=0;dropTarget=0;fillColor=none;points=[[0,0.5],[1,0.5]];portConstraint=eastwest;" vertex="1" parent="_dHpeF81XEZjoDz7rJlP-1">
          <mxGeometry width="450" height="40" as="geometry" />
        </mxCell>
        <mxCell id="_dHpeF81XEZjoDz7rJlP-3" value="Accounts" style="shape=partialRectangle;html=1;whiteSpace=wrap;connectable=0;overflow=hidden;fillColor=none;top=0;left=0;bottom=0;right=0;pointerEvents=1;rowspan=1;colspan=5;" vertex="1" parent="_dHpeF81XEZjoDz7rJlP-2">
          <mxGeometry width="450" height="40" as="geometry">
            <mxRectangle width="90" height="40" as="alternateBounds" />
          </mxGeometry>
        </mxCell>
        <mxCell id="_dHpeF81XEZjoDz7rJlP-4" style="shape=partialRectangle;html=1;whiteSpace=wrap;connectable=0;overflow=hidden;fillColor=none;top=0;left=0;bottom=0;right=0;pointerEvents=1;" vertex="1" visible="0" parent="_dHpeF81XEZjoDz7rJlP-2">
          <mxGeometry x="90" width="90" height="40" as="geometry">
            <mxRectangle width="90" height="40" as="alternateBounds" />
          </mxGeometry>
        </mxCell>
        <mxCell id="_dHpeF81XEZjoDz7rJlP-5" style="shape=partialRectangle;html=1;whiteSpace=wrap;connectable=0;overflow=hidden;fillColor=none;top=0;left=0;bottom=0;right=0;pointerEvents=1;" vertex="1" visible="0" parent="_dHpeF81XEZjoDz7rJlP-2">
          <mxGeometry x="180" width="90" height="40" as="geometry">
            <mxRectangle width="90" height="40" as="alternateBounds" />
          </mxGeometry>
        </mxCell>
        <mxCell id="_dHpeF81XEZjoDz7rJlP-6" style="shape=partialRectangle;html=1;whiteSpace=wrap;connectable=0;overflow=hidden;fillColor=none;top=0;left=0;bottom=0;right=0;pointerEvents=1;" vertex="1" visible="0" parent="_dHpeF81XEZjoDz7rJlP-2">
          <mxGeometry x="270" width="90" height="40" as="geometry">
            <mxRectangle width="90" height="40" as="alternateBounds" />
          </mxGeometry>
        </mxCell>
        <mxCell id="_dHpeF81XEZjoDz7rJlP-7" style="shape=partialRectangle;html=1;whiteSpace=wrap;connectable=0;overflow=hidden;fillColor=none;top=0;left=0;bottom=0;right=0;pointerEvents=1;" vertex="1" visible="0" parent="_dHpeF81XEZjoDz7rJlP-2">
          <mxGeometry x="360" width="90" height="40" as="geometry">
            <mxRectangle width="90" height="40" as="alternateBounds" />
          </mxGeometry>
        </mxCell>
        <mxCell id="_dHpeF81XEZjoDz7rJlP-8" value="" style="shape=tableRow;horizontal=0;startSize=0;swimlaneHead=0;swimlaneBody=0;top=0;left=0;bottom=0;right=0;collapsible=0;dropTarget=0;fillColor=none;points=[[0,0.5],[1,0.5]];portConstraint=eastwest;" vertex="1" parent="_dHpeF81XEZjoDz7rJlP-1">
          <mxGeometry y="40" width="450" height="40" as="geometry" />
        </mxCell>
        <mxCell id="_dHpeF81XEZjoDz7rJlP-9" value="id" style="shape=partialRectangle;html=1;whiteSpace=wrap;connectable=0;overflow=hidden;fillColor=none;top=0;left=0;bottom=0;right=0;pointerEvents=1;" vertex="1" parent="_dHpeF81XEZjoDz7rJlP-8">
          <mxGeometry width="90" height="40" as="geometry">
            <mxRectangle width="90" height="40" as="alternateBounds" />
          </mxGeometry>
        </mxCell>
        <mxCell id="_dHpeF81XEZjoDz7rJlP-10" value="name" style="shape=partialRectangle;html=1;whiteSpace=wrap;connectable=0;overflow=hidden;fillColor=none;top=0;left=0;bottom=0;right=0;pointerEvents=1;" vertex="1" parent="_dHpeF81XEZjoDz7rJlP-8">
          <mxGeometry x="90" width="90" height="40" as="geometry">
            <mxRectangle width="90" height="40" as="alternateBounds" />
          </mxGeometry>
        </mxCell>
        <mxCell id="_dHpeF81XEZjoDz7rJlP-11" value="type_id" style="shape=partialRectangle;html=1;whiteSpace=wrap;connectable=0;overflow=hidden;fillColor=none;top=0;left=0;bottom=0;right=0;pointerEvents=1;" vertex="1" parent="_dHpeF81XEZjoDz7rJlP-8">
          <mxGeometry x="180" width="90" height="40" as="geometry">
            <mxRectangle width="90" height="40" as="alternateBounds" />
          </mxGeometry>
        </mxCell>
        <mxCell id="_dHpeF81XEZjoDz7rJlP-12" value="balance" style="shape=partialRectangle;html=1;whiteSpace=wrap;connectable=0;overflow=hidden;fillColor=none;top=0;left=0;bottom=0;right=0;pointerEvents=1;" vertex="1" parent="_dHpeF81XEZjoDz7rJlP-8">
          <mxGeometry x="270" width="90" height="40" as="geometry">
            <mxRectangle width="90" height="40" as="alternateBounds" />
          </mxGeometry>
        </mxCell>
        <mxCell id="_dHpeF81XEZjoDz7rJlP-13" value="created" style="shape=partialRectangle;html=1;whiteSpace=wrap;connectable=0;overflow=hidden;fillColor=none;top=0;left=0;bottom=0;right=0;pointerEvents=1;" vertex="1" parent="_dHpeF81XEZjoDz7rJlP-8">
          <mxGeometry x="360" width="90" height="40" as="geometry">
            <mxRectangle width="90" height="40" as="alternateBounds" />
          </mxGeometry>
        </mxCell>
        <mxCell id="_dHpeF81XEZjoDz7rJlP-14" value="" style="shape=tableRow;horizontal=0;startSize=0;swimlaneHead=0;swimlaneBody=0;top=0;left=0;bottom=0;right=0;collapsible=0;dropTarget=0;fillColor=none;points=[[0,0.5],[1,0.5]];portConstraint=eastwest;" vertex="1" parent="_dHpeF81XEZjoDz7rJlP-1">
          <mxGeometry y="80" width="450" height="40" as="geometry" />
        </mxCell>
        <mxCell id="_dHpeF81XEZjoDz7rJlP-15" value="1" style="shape=partialRectangle;html=1;whiteSpace=wrap;connectable=0;overflow=hidden;fillColor=none;top=0;left=0;bottom=0;right=0;pointerEvents=1;" vertex="1" parent="_dHpeF81XEZjoDz7rJlP-14">
          <mxGeometry width="90" height="40" as="geometry">
            <mxRectangle width="90" height="40" as="alternateBounds" />
          </mxGeometry>
        </mxCell>
        <mxCell id="_dHpeF81XEZjoDz7rJlP-16" value="federal" style="shape=partialRectangle;html=1;whiteSpace=wrap;connectable=0;overflow=hidden;fillColor=none;top=0;left=0;bottom=0;right=0;pointerEvents=1;" vertex="1" parent="_dHpeF81XEZjoDz7rJlP-14">
          <mxGeometry x="90" width="90" height="40" as="geometry">
            <mxRectangle width="90" height="40" as="alternateBounds" />
          </mxGeometry>
        </mxCell>
        <mxCell id="_dHpeF81XEZjoDz7rJlP-17" value="100" style="shape=partialRectangle;html=1;whiteSpace=wrap;connectable=0;overflow=hidden;fillColor=none;top=0;left=0;bottom=0;right=0;pointerEvents=1;" vertex="1" parent="_dHpeF81XEZjoDz7rJlP-14">
          <mxGeometry x="180" width="90" height="40" as="geometry">
            <mxRectangle width="90" height="40" as="alternateBounds" />
          </mxGeometry>
        </mxCell>
        <mxCell id="_dHpeF81XEZjoDz7rJlP-18" value="170000" style="shape=partialRectangle;html=1;whiteSpace=wrap;connectable=0;overflow=hidden;fillColor=none;top=0;left=0;bottom=0;right=0;pointerEvents=1;" vertex="1" parent="_dHpeF81XEZjoDz7rJlP-14">
          <mxGeometry x="270" width="90" height="40" as="geometry">
            <mxRectangle width="90" height="40" as="alternateBounds" />
          </mxGeometry>
        </mxCell>
        <mxCell id="_dHpeF81XEZjoDz7rJlP-19" value="1647690384" style="shape=partialRectangle;html=1;whiteSpace=wrap;connectable=0;overflow=hidden;fillColor=none;top=0;left=0;bottom=0;right=0;pointerEvents=1;" vertex="1" parent="_dHpeF81XEZjoDz7rJlP-14">
          <mxGeometry x="360" width="90" height="40" as="geometry">
            <mxRectangle width="90" height="40" as="alternateBounds" />
          </mxGeometry>
        </mxCell>
        <mxCell id="_dHpeF81XEZjoDz7rJlP-20" style="shape=tableRow;horizontal=0;startSize=0;swimlaneHead=0;swimlaneBody=0;top=0;left=0;bottom=0;right=0;collapsible=0;dropTarget=0;fillColor=none;points=[[0,0.5],[1,0.5]];portConstraint=eastwest;" vertex="1" parent="_dHpeF81XEZjoDz7rJlP-1">
          <mxGeometry y="120" width="450" height="40" as="geometry" />
        </mxCell>
        <mxCell id="_dHpeF81XEZjoDz7rJlP-21" value="2" style="shape=partialRectangle;html=1;whiteSpace=wrap;connectable=0;overflow=hidden;fillColor=none;top=0;left=0;bottom=0;right=0;pointerEvents=1;" vertex="1" parent="_dHpeF81XEZjoDz7rJlP-20">
          <mxGeometry width="90" height="40" as="geometry">
            <mxRectangle width="90" height="40" as="alternateBounds" />
          </mxGeometry>
        </mxCell>
        <mxCell id="_dHpeF81XEZjoDz7rJlP-22" value="south indian" style="shape=partialRectangle;html=1;whiteSpace=wrap;connectable=0;overflow=hidden;fillColor=none;top=0;left=0;bottom=0;right=0;pointerEvents=1;" vertex="1" parent="_dHpeF81XEZjoDz7rJlP-20">
          <mxGeometry x="90" width="90" height="40" as="geometry">
            <mxRectangle width="90" height="40" as="alternateBounds" />
          </mxGeometry>
        </mxCell>
        <mxCell id="_dHpeF81XEZjoDz7rJlP-23" value="101" style="shape=partialRectangle;html=1;whiteSpace=wrap;connectable=0;overflow=hidden;fillColor=none;top=0;left=0;bottom=0;right=0;pointerEvents=1;" vertex="1" parent="_dHpeF81XEZjoDz7rJlP-20">
          <mxGeometry x="180" width="90" height="40" as="geometry">
            <mxRectangle width="90" height="40" as="alternateBounds" />
          </mxGeometry>
        </mxCell>
        <mxCell id="_dHpeF81XEZjoDz7rJlP-24" value="12000" style="shape=partialRectangle;html=1;whiteSpace=wrap;connectable=0;overflow=hidden;fillColor=none;top=0;left=0;bottom=0;right=0;pointerEvents=1;" vertex="1" parent="_dHpeF81XEZjoDz7rJlP-20">
          <mxGeometry x="270" width="90" height="40" as="geometry">
            <mxRectangle width="90" height="40" as="alternateBounds" />
          </mxGeometry>
        </mxCell>
        <mxCell id="_dHpeF81XEZjoDz7rJlP-25" value="1647690589" style="shape=partialRectangle;html=1;whiteSpace=wrap;connectable=0;overflow=hidden;fillColor=none;top=0;left=0;bottom=0;right=0;pointerEvents=1;" vertex="1" parent="_dHpeF81XEZjoDz7rJlP-20">
          <mxGeometry x="360" width="90" height="40" as="geometry">
            <mxRectangle width="90" height="40" as="alternateBounds" />
          </mxGeometry>
        </mxCell>
        <mxCell id="_dHpeF81XEZjoDz7rJlP-26" value="Type" style="shape=table;startSize=30;container=1;collapsible=0;childLayout=tableLayout;" vertex="1" parent="1">
          <mxGeometry x="40" y="360" width="200" height="160" as="geometry" />
        </mxCell>
        <mxCell id="_dHpeF81XEZjoDz7rJlP-27" value="" style="shape=tableRow;horizontal=0;startSize=0;swimlaneHead=0;swimlaneBody=0;top=0;left=0;bottom=0;right=0;collapsible=0;dropTarget=0;fillColor=none;points=[[0,0.5],[1,0.5]];portConstraint=eastwest;" vertex="1" parent="_dHpeF81XEZjoDz7rJlP-26">
          <mxGeometry y="30" width="200" height="43" as="geometry" />
        </mxCell>
        <mxCell id="_dHpeF81XEZjoDz7rJlP-28" value="id" style="shape=partialRectangle;html=1;whiteSpace=wrap;connectable=0;overflow=hidden;fillColor=none;top=0;left=0;bottom=0;right=0;pointerEvents=1;" vertex="1" parent="_dHpeF81XEZjoDz7rJlP-27">
          <mxGeometry width="67" height="43" as="geometry">
            <mxRectangle width="67" height="43" as="alternateBounds" />
          </mxGeometry>
        </mxCell>
        <mxCell id="_dHpeF81XEZjoDz7rJlP-29" value="name" style="shape=partialRectangle;html=1;whiteSpace=wrap;connectable=0;overflow=hidden;fillColor=none;top=0;left=0;bottom=0;right=0;pointerEvents=1;" vertex="1" parent="_dHpeF81XEZjoDz7rJlP-27">
          <mxGeometry x="67" width="66" height="43" as="geometry">
            <mxRectangle width="66" height="43" as="alternateBounds" />
          </mxGeometry>
        </mxCell>
        <mxCell id="_dHpeF81XEZjoDz7rJlP-30" value="logo_id" style="shape=partialRectangle;html=1;whiteSpace=wrap;connectable=0;overflow=hidden;fillColor=none;top=0;left=0;bottom=0;right=0;pointerEvents=1;" vertex="1" parent="_dHpeF81XEZjoDz7rJlP-27">
          <mxGeometry x="133" width="67" height="43" as="geometry">
            <mxRectangle width="67" height="43" as="alternateBounds" />
          </mxGeometry>
        </mxCell>
        <mxCell id="_dHpeF81XEZjoDz7rJlP-31" value="" style="shape=tableRow;horizontal=0;startSize=0;swimlaneHead=0;swimlaneBody=0;top=0;left=0;bottom=0;right=0;collapsible=0;dropTarget=0;fillColor=none;points=[[0,0.5],[1,0.5]];portConstraint=eastwest;" vertex="1" parent="_dHpeF81XEZjoDz7rJlP-26">
          <mxGeometry y="73" width="200" height="44" as="geometry" />
        </mxCell>
        <mxCell id="_dHpeF81XEZjoDz7rJlP-32" value="100" style="shape=partialRectangle;html=1;whiteSpace=wrap;connectable=0;overflow=hidden;fillColor=none;top=0;left=0;bottom=0;right=0;pointerEvents=1;" vertex="1" parent="_dHpeF81XEZjoDz7rJlP-31">
          <mxGeometry width="67" height="44" as="geometry">
            <mxRectangle width="67" height="44" as="alternateBounds" />
          </mxGeometry>
        </mxCell>
        <mxCell id="_dHpeF81XEZjoDz7rJlP-33" value="Savings" style="shape=partialRectangle;html=1;whiteSpace=wrap;connectable=0;overflow=hidden;fillColor=none;top=0;left=0;bottom=0;right=0;pointerEvents=1;" vertex="1" parent="_dHpeF81XEZjoDz7rJlP-31">
          <mxGeometry x="67" width="66" height="44" as="geometry">
            <mxRectangle width="66" height="44" as="alternateBounds" />
          </mxGeometry>
        </mxCell>
        <mxCell id="_dHpeF81XEZjoDz7rJlP-34" value="SAV" style="shape=partialRectangle;html=1;whiteSpace=wrap;connectable=0;overflow=hidden;fillColor=none;top=0;left=0;bottom=0;right=0;pointerEvents=1;" vertex="1" parent="_dHpeF81XEZjoDz7rJlP-31">
          <mxGeometry x="133" width="67" height="44" as="geometry">
            <mxRectangle width="67" height="44" as="alternateBounds" />
          </mxGeometry>
        </mxCell>
        <mxCell id="_dHpeF81XEZjoDz7rJlP-35" value="" style="shape=tableRow;horizontal=0;startSize=0;swimlaneHead=0;swimlaneBody=0;top=0;left=0;bottom=0;right=0;collapsible=0;dropTarget=0;fillColor=none;points=[[0,0.5],[1,0.5]];portConstraint=eastwest;" vertex="1" parent="_dHpeF81XEZjoDz7rJlP-26">
          <mxGeometry y="117" width="200" height="43" as="geometry" />
        </mxCell>
        <mxCell id="_dHpeF81XEZjoDz7rJlP-36" value="101" style="shape=partialRectangle;html=1;whiteSpace=wrap;connectable=0;overflow=hidden;fillColor=none;top=0;left=0;bottom=0;right=0;pointerEvents=1;" vertex="1" parent="_dHpeF81XEZjoDz7rJlP-35">
          <mxGeometry width="67" height="43" as="geometry">
            <mxRectangle width="67" height="43" as="alternateBounds" />
          </mxGeometry>
        </mxCell>
        <mxCell id="_dHpeF81XEZjoDz7rJlP-37" value="Checking" style="shape=partialRectangle;html=1;whiteSpace=wrap;connectable=0;overflow=hidden;fillColor=none;top=0;left=0;bottom=0;right=0;pointerEvents=1;" vertex="1" parent="_dHpeF81XEZjoDz7rJlP-35">
          <mxGeometry x="67" width="66" height="43" as="geometry">
            <mxRectangle width="66" height="43" as="alternateBounds" />
          </mxGeometry>
        </mxCell>
        <mxCell id="_dHpeF81XEZjoDz7rJlP-38" value="CHK" style="shape=partialRectangle;html=1;whiteSpace=wrap;connectable=0;overflow=hidden;fillColor=none;top=0;left=0;bottom=0;right=0;pointerEvents=1;" vertex="1" parent="_dHpeF81XEZjoDz7rJlP-35">
          <mxGeometry x="133" width="67" height="43" as="geometry">
            <mxRectangle width="67" height="43" as="alternateBounds" />
          </mxGeometry>
        </mxCell>
        <mxCell id="_dHpeF81XEZjoDz7rJlP-39" value="" style="endArrow=classic;startArrow=classic;html=1;rounded=0;entryX=0.504;entryY=-0.025;entryDx=0;entryDy=0;entryPerimeter=0;exitX=0.5;exitY=0;exitDx=0;exitDy=0;" edge="1" parent="1" source="_dHpeF81XEZjoDz7rJlP-26" target="_dHpeF81XEZjoDz7rJlP-14">
          <mxGeometry width="50" height="50" relative="1" as="geometry">
            <mxPoint x="150" y="360" as="sourcePoint" />
            <mxPoint x="200" y="310" as="targetPoint" />
          </mxGeometry>
        </mxCell>
      </root>
    </mxGraphModel>
  </diagram>
</mxfile>
